<svg width="20" height="21" viewBox="0 0 20 21" fill="none" xmlns="http://www.w3.org/2000/svg">
<g id="Check(stroke)">
<g id="Vector">
<path fill-rule="evenodd" clip-rule="evenodd" d="M17.256 4.91075C17.5814 5.23619 17.5814 5.76383 17.256 6.08926L8.0893 15.2559C7.76387 15.5814 7.23623 15.5814 6.91079 15.2559L2.74413 11.0893C2.41869 10.7638 2.41869 10.2362 2.74413 9.91075C3.06956 9.58532 3.5972 9.58532 3.92264 9.91075L7.50005 13.4882L16.0775 4.91075C16.4029 4.58532 16.9305 4.58532 17.256 4.91075Z" fill="#6BE42B"/>
<path fill-rule="evenodd" clip-rule="evenodd" d="M17.3974 4.76933C17.8009 5.17287 17.8009 5.82714 17.3974 6.23069L8.23073 15.3974C7.82718 15.8009 7.17291 15.8009 6.76937 15.3974L2.60271 11.2307C2.19916 10.8271 2.19916 10.1729 2.60271 9.76933C3.00625 9.36579 3.66052 9.36579 4.06406 9.76933L7.50005 13.2053L15.936 4.76933C16.3396 4.36579 16.9938 4.36579 17.3974 4.76933ZM7.50005 13.4882L3.92264 9.91075C3.5972 9.58532 3.06956 9.58532 2.74413 9.91075C2.41869 10.2362 2.41869 10.7638 2.74413 11.0893L6.91079 15.2559C7.23623 15.5814 7.76387 15.5814 8.0893 15.2559L17.256 6.08926C17.5814 5.76383 17.5814 5.23619 17.256 4.91075C16.9305 4.58532 16.4029 4.58532 16.0775 4.91075L7.50005 13.4882Z" fill="#6BE42B"/>
</g>
</g>
</svg>
