<svg width="20" height="20" viewBox="0 0 20 20" fill="none" xmlns="http://www.w3.org/2000/svg">
<g id="Chrome(stroke)" clip-path="url(#clip0_1818_6707)">
<path id="Vector (Stroke)" fill-rule="evenodd" clip-rule="evenodd" d="M10 2.50004C5.8579 2.50004 2.50004 5.8579 2.50004 10C2.50004 14.1422 5.8579 17.5 10 17.5C14.1422 17.5 17.5 14.1422 17.5 10C17.5 5.8579 14.1422 2.50004 10 2.50004ZM0.833374 10C0.833374 4.93743 4.93743 0.833374 10 0.833374C15.0626 0.833374 19.1667 4.93743 19.1667 10C19.1667 15.0626 15.0626 19.1667 10 19.1667C4.93743 19.1667 0.833374 15.0626 0.833374 10Z" fill="#A2A6B1"/>
<path id="Vector (Stroke)_2" fill-rule="evenodd" clip-rule="evenodd" d="M9.16663 6.66671C9.16663 6.20647 9.53972 5.83337 9.99996 5.83337H17.6416C18.1019 5.83337 18.475 6.20647 18.475 6.66671C18.475 7.12694 18.1019 7.50004 17.6416 7.50004H9.99996C9.53972 7.50004 9.16663 7.12694 9.16663 6.66671Z" fill="#A2A6B1"/>
<path id="Vector (Stroke)_3" fill-rule="evenodd" clip-rule="evenodd" d="M10 7.50004C8.61933 7.50004 7.50004 8.61933 7.50004 10C7.50004 11.3808 8.61933 12.5 10 12.5C11.3808 12.5 12.5 11.3808 12.5 10C12.5 8.61933 11.3808 7.50004 10 7.50004ZM5.83337 10C5.83337 7.69885 7.69885 5.83337 10 5.83337C12.3012 5.83337 14.1667 7.69885 14.1667 10C14.1667 12.3012 12.3012 14.1667 10 14.1667C7.69885 14.1667 5.83337 12.3012 5.83337 10Z" fill="#A2A6B1"/>
<path id="Vector (Stroke)_4" fill-rule="evenodd" clip-rule="evenodd" d="M13.2997 10.9449C13.6983 11.1748 13.8351 11.6844 13.6051 12.0831L9.78848 18.6998C9.55852 19.0984 9.04891 19.2352 8.65024 19.0052C8.25158 18.7753 8.11481 18.2657 8.34478 17.867L12.1614 11.2503C12.3914 10.8517 12.901 10.7149 13.2997 10.9449Z" fill="#A2A6B1"/>
<path id="Vector (Stroke)_5" fill-rule="evenodd" clip-rule="evenodd" d="M2.87454 4.32857C3.27299 4.09823 3.78272 4.23451 4.01306 4.63296L7.83806 11.2496C8.0684 11.6481 7.93212 12.1578 7.53367 12.3881C7.13522 12.6185 6.62548 12.4822 6.39514 12.0838L2.57014 5.46709C2.33981 5.06864 2.47609 4.55891 2.87454 4.32857Z" fill="#A2A6B1"/>
</g>
<defs>
<clipPath id="clip0_1818_6707">
<rect width="20" height="20" fill="white"/>
</clipPath>
</defs>
</svg>
