<svg width="13" height="14" viewBox="0 0 13 14" fill="none" xmlns="http://www.w3.org/2000/svg">
<g id="Location(stroke)">
<path id="Vector (Stroke)" fill-rule="evenodd" clip-rule="evenodd" d="M9.32885 3.45119C9.70037 3.81162 9.99517 4.23954 10.1962 4.71052C10.3973 5.18149 10.5008 5.68629 10.5008 6.19608C10.5008 6.70587 10.3973 7.21067 10.1962 7.68164C9.99517 8.15261 9.70037 8.58054 9.32885 8.94096L6.50005 11.6843L3.67125 8.94019C3.29977 8.57977 3.00509 8.15179 2.80405 7.68083C2.603 7.20986 2.49952 6.70507 2.49952 6.19531C2.49952 5.68553 2.603 5.18075 2.80405 4.70978C3.00509 4.23881 3.29977 3.81088 3.67125 3.45042C4.04274 3.08995 4.48375 2.80402 4.96911 2.60893C5.45448 2.41385 5.9747 2.31344 6.50005 2.31344C7.02541 2.31344 7.54561 2.41385 8.03098 2.60893C8.51637 2.80402 8.95733 3.08995 9.32885 3.45042V3.45119ZM10.1768 9.76381C10.9041 9.05818 11.3994 8.1591 11.6001 7.18031C11.8008 6.20152 11.6978 5.18696 11.3043 4.26495C10.9107 3.34293 10.2442 2.55487 9.38909 2.00041C8.53389 1.44596 7.52853 1.15002 6.50005 1.15002C5.47157 1.15002 4.46618 1.44596 3.61104 2.00041C2.7559 2.55487 2.0894 3.34293 1.69583 4.26495C1.30227 5.18696 1.19932 6.20152 1.4 7.18031C1.60068 8.1591 2.09598 9.05818 2.82325 9.76381L5.65125 12.5087C5.76269 12.6169 5.89501 12.7028 6.04066 12.7613C6.1863 12.8199 6.3424 12.85 6.50005 12.85C6.6577 12.85 6.81381 12.8199 6.95945 12.7613C7.10509 12.7028 7.23741 12.6169 7.34885 12.5087L10.1768 9.76381ZM6.50005 7.74862C6.9244 7.74862 7.33136 7.58505 7.63142 7.29389C7.93148 7.00273 8.10005 6.60784 8.10005 6.19608C8.10005 5.78432 7.93148 5.38943 7.63142 5.09827C7.33136 4.80711 6.9244 4.64354 6.50005 4.64354C6.0757 4.64354 5.66874 4.80711 5.36868 5.09827C5.06862 5.38943 4.90005 5.78432 4.90005 6.19608C4.90005 6.60784 5.06862 7.00273 5.36868 7.29389C5.66874 7.58505 6.0757 7.74862 6.50005 7.74862Z" fill="white"/>
</g>
</svg>
