<svg width="21" height="20" viewBox="0 0 21 20" fill="none" xmlns="http://www.w3.org/2000/svg">
<g id="Navigation(stroke)">
<path id="Vector (Stroke)" fill-rule="evenodd" clip-rule="evenodd" d="M19.4226 1.07735C19.6716 1.32638 19.7372 1.70507 19.5864 2.02335L12.0864 17.8567C11.9358 18.1748 11.6015 18.3639 11.2512 18.3292C10.9009 18.2945 10.6102 18.0435 10.5249 17.7021L8.97946 11.5205L2.79787 9.97506C2.4564 9.88969 2.20539 9.59899 2.1707 9.24872C2.13602 8.89846 2.32515 8.56417 2.64324 8.41349L18.4766 0.913494C18.7949 0.762731 19.1735 0.828326 19.4226 1.07735ZM5.4611 8.92291L9.86876 10.0248C10.1673 10.0995 10.4005 10.3326 10.4751 10.6312L11.577 15.0388L17.0813 3.41859L5.4611 8.92291Z" fill="white"/>
</g>
</svg>
