<svg width="20" height="20" viewBox="0 0 20 20" fill="none" xmlns="http://www.w3.org/2000/svg">
<mask id="path-1-outside-1_1818_6704" maskUnits="userSpaceOnUse" x="1" y="0" width="19" height="20" fill="black">
<rect fill="white" x="1" width="19" height="20"/>
<path d="M17.5824 13.2796L16.9659 12.7562C15.8623 11.8298 14.4348 10.8205 13.1817 11.2414C12.9495 11.3194 12.7364 11.4441 12.5429 11.6165L11.9743 12.1353C11.9221 12.1818 11.8728 12.2313 11.8207 12.2837C11.6788 12.4265 11.5177 12.5884 11.317 12.6558C10.8217 12.8222 10.0155 12.3605 9.04722 11.3557C8.09689 10.3695 7.91407 9.74653 7.92797 9.3975C7.94333 9.01242 8.20771 8.76119 8.50079 8.51677C8.54154 8.48275 8.5783 8.45195 8.61361 8.4207L9.19132 7.90075C10.6982 6.5513 9.10353 4.13999 8.58068 3.34943L8.13368 2.66887C7.75965 2.10987 6.76687 0.624792 5.38691 1.08831C5.13144 1.17411 4.88037 1.32609 4.64093 1.54C4.48252 1.67665 2.31267 3.58574 2.04854 5.74795C1.72967 8.32313 2.98301 11.2118 5.77247 14.3321C8.55231 17.4607 11.2744 19.0311 13.8632 18.9995C14.3073 18.9943 14.7807 18.9081 15.2705 18.7436C16.8736 18.2051 18.2105 16.9809 18.3186 16.8802C18.7869 16.4568 19.0159 15.9755 18.9991 15.4495C18.9706 14.5576 18.2256 13.8202 17.5824 13.2796ZM17.6725 15.4571C17.6764 15.5794 17.5894 15.7214 17.4143 15.8789C17.4114 15.8816 17.4079 15.8848 17.405 15.8876C17.3929 15.8988 16.1867 17.017 14.8204 17.4758C14.459 17.5972 14.1197 17.6606 13.8121 17.6643C11.6311 17.6908 9.25568 16.2753 6.75001 13.4553C4.23579 10.6428 3.09697 8.11684 3.36573 5.94645C3.57234 4.25528 5.50313 2.57795 5.52215 2.56172C5.52599 2.55835 5.52977 2.55509 5.53352 2.55175C5.6426 2.45381 5.74755 2.38621 5.83695 2.35618C6.11206 2.26377 6.51624 2.61294 7.03527 3.38908L7.48032 4.06679C8.4326 5.50654 8.72163 6.51006 8.29303 6.89393L7.71811 7.41153C7.69516 7.43191 7.66785 7.45443 7.63782 7.47955C7.3145 7.74926 6.64164 8.31035 6.60167 9.30878C6.56541 10.2148 7.05761 11.1841 8.10602 12.2724C9.51764 13.7369 10.7151 14.2771 11.7669 13.9238C12.255 13.7599 12.5781 13.4349 12.7712 13.2408C12.8068 13.205 12.8384 13.1725 12.8737 13.1412L13.4431 12.6217C13.5022 12.5689 13.5639 12.5322 13.6317 12.5094C13.9559 12.4005 14.653 12.5313 16.1288 13.77L16.745 14.293C17.5011 14.9285 17.6667 15.2769 17.6725 15.4571Z"/>
</mask>
<path d="M17.5824 13.2796L16.9659 12.7562C15.8623 11.8298 14.4348 10.8205 13.1817 11.2414C12.9495 11.3194 12.7364 11.4441 12.5429 11.6165L11.9743 12.1353C11.9221 12.1818 11.8728 12.2313 11.8207 12.2837C11.6788 12.4265 11.5177 12.5884 11.317 12.6558C10.8217 12.8222 10.0155 12.3605 9.04722 11.3557C8.09689 10.3695 7.91407 9.74653 7.92797 9.3975C7.94333 9.01242 8.20771 8.76119 8.50079 8.51677C8.54154 8.48275 8.5783 8.45195 8.61361 8.4207L9.19132 7.90075C10.6982 6.5513 9.10353 4.13999 8.58068 3.34943L8.13368 2.66887C7.75965 2.10987 6.76687 0.624792 5.38691 1.08831C5.13144 1.17411 4.88037 1.32609 4.64093 1.54C4.48252 1.67665 2.31267 3.58574 2.04854 5.74795C1.72967 8.32313 2.98301 11.2118 5.77247 14.3321C8.55231 17.4607 11.2744 19.0311 13.8632 18.9995C14.3073 18.9943 14.7807 18.9081 15.2705 18.7436C16.8736 18.2051 18.2105 16.9809 18.3186 16.8802C18.7869 16.4568 19.0159 15.9755 18.9991 15.4495C18.9706 14.5576 18.2256 13.8202 17.5824 13.2796ZM17.6725 15.4571C17.6764 15.5794 17.5894 15.7214 17.4143 15.8789C17.4114 15.8816 17.4079 15.8848 17.405 15.8876C17.3929 15.8988 16.1867 17.017 14.8204 17.4758C14.459 17.5972 14.1197 17.6606 13.8121 17.6643C11.6311 17.6908 9.25568 16.2753 6.75001 13.4553C4.23579 10.6428 3.09697 8.11684 3.36573 5.94645C3.57234 4.25528 5.50313 2.57795 5.52215 2.56172C5.52599 2.55835 5.52977 2.55509 5.53352 2.55175C5.6426 2.45381 5.74755 2.38621 5.83695 2.35618C6.11206 2.26377 6.51624 2.61294 7.03527 3.38908L7.48032 4.06679C8.4326 5.50654 8.72163 6.51006 8.29303 6.89393L7.71811 7.41153C7.69516 7.43191 7.66785 7.45443 7.63782 7.47955C7.3145 7.74926 6.64164 8.31035 6.60167 9.30878C6.56541 10.2148 7.05761 11.1841 8.10602 12.2724C9.51764 13.7369 10.7151 14.2771 11.7669 13.9238C12.255 13.7599 12.5781 13.4349 12.7712 13.2408C12.8068 13.205 12.8384 13.1725 12.8737 13.1412L13.4431 12.6217C13.5022 12.5689 13.5639 12.5322 13.6317 12.5094C13.9559 12.4005 14.653 12.5313 16.1288 13.77L16.745 14.293C17.5011 14.9285 17.6667 15.2769 17.6725 15.4571Z" fill="#A2A6B1"/>
<path d="M17.5824 13.2796L16.9659 12.7562C15.8623 11.8298 14.4348 10.8205 13.1817 11.2414C12.9495 11.3194 12.7364 11.4441 12.5429 11.6165L11.9743 12.1353C11.9221 12.1818 11.8728 12.2313 11.8207 12.2837C11.6788 12.4265 11.5177 12.5884 11.317 12.6558C10.8217 12.8222 10.0155 12.3605 9.04722 11.3557C8.09689 10.3695 7.91407 9.74653 7.92797 9.3975C7.94333 9.01242 8.20771 8.76119 8.50079 8.51677C8.54154 8.48275 8.5783 8.45195 8.61361 8.4207L9.19132 7.90075C10.6982 6.5513 9.10353 4.13999 8.58068 3.34943L8.13368 2.66887C7.75965 2.10987 6.76687 0.624792 5.38691 1.08831C5.13144 1.17411 4.88037 1.32609 4.64093 1.54C4.48252 1.67665 2.31267 3.58574 2.04854 5.74795C1.72967 8.32313 2.98301 11.2118 5.77247 14.3321C8.55231 17.4607 11.2744 19.0311 13.8632 18.9995C14.3073 18.9943 14.7807 18.9081 15.2705 18.7436C16.8736 18.2051 18.2105 16.9809 18.3186 16.8802C18.7869 16.4568 19.0159 15.9755 18.9991 15.4495C18.9706 14.5576 18.2256 13.8202 17.5824 13.2796ZM17.6725 15.4571C17.6764 15.5794 17.5894 15.7214 17.4143 15.8789C17.4114 15.8816 17.4079 15.8848 17.405 15.8876C17.3929 15.8988 16.1867 17.017 14.8204 17.4758C14.459 17.5972 14.1197 17.6606 13.8121 17.6643C11.6311 17.6908 9.25568 16.2753 6.75001 13.4553C4.23579 10.6428 3.09697 8.11684 3.36573 5.94645C3.57234 4.25528 5.50313 2.57795 5.52215 2.56172C5.52599 2.55835 5.52977 2.55509 5.53352 2.55175C5.6426 2.45381 5.74755 2.38621 5.83695 2.35618C6.11206 2.26377 6.51624 2.61294 7.03527 3.38908L7.48032 4.06679C8.4326 5.50654 8.72163 6.51006 8.29303 6.89393L7.71811 7.41153C7.69516 7.43191 7.66785 7.45443 7.63782 7.47955C7.3145 7.74926 6.64164 8.31035 6.60167 9.30878C6.56541 10.2148 7.05761 11.1841 8.10602 12.2724C9.51764 13.7369 10.7151 14.2771 11.7669 13.9238C12.255 13.7599 12.5781 13.4349 12.7712 13.2408C12.8068 13.205 12.8384 13.1725 12.8737 13.1412L13.4431 12.6217C13.5022 12.5689 13.5639 12.5322 13.6317 12.5094C13.9559 12.4005 14.653 12.5313 16.1288 13.77L16.745 14.293C17.5011 14.9285 17.6667 15.2769 17.6725 15.4571Z" stroke="#A2A6B1" stroke-width="0.4" mask="url(#path-1-outside-1_1818_6704)"/>
</svg>
