<svg width="12" height="11" viewBox="0 0 12 11" fill="none" xmlns="http://www.w3.org/2000/svg">
<g id="Star(solid)">
<path id="Vector" d="M6.32312 1.3037L7.44983 3.20513C7.59067 3.43149 7.8254 3.56731 8.06012 3.65785L10.2666 4.11057C10.6421 4.20112 10.783 4.60857 10.5013 4.8802L8.99904 6.51C8.81126 6.69109 8.71737 6.96272 8.76431 7.23435L8.99904 9.40742C9.04599 9.76959 8.67042 9.99595 8.3418 9.86014L6.27618 8.95469C6.04145 8.86415 5.75977 8.86415 5.52504 8.95469L3.45942 9.86014C3.1308 9.99595 2.75523 9.72432 2.80218 9.40742L3.03691 7.23435C3.08386 6.96272 2.98996 6.73636 2.80218 6.51L1.29991 4.8802C1.06518 4.60857 1.20602 4.20112 1.53464 4.11057L3.7411 3.65785C4.02277 3.61258 4.21056 3.43149 4.3514 3.20513L5.4781 1.3037C5.66588 1.03207 6.13534 1.03207 6.32312 1.3037Z" fill="#FFAB36"/>
</g>
</svg>
